<svg width="59" height="38" viewBox="0 0 59 38" fill="none" xmlns="http://www.w3.org/2000/svg">
<path d="M55.8843 0H3.6958C1.97503 0 0.580074 1.41321 0.580074 3.1565V34.0113C0.580074 35.7545 1.97503 37.1678 3.6958 37.1678H55.8843C57.605 37.1678 59 35.7545 59 34.0113V3.1565C59 1.41321 57.605 0 55.8843 0Z" fill="#00425F"/>
<path d="M12.7519 26.1014C17.7105 26.1014 21.7302 22.0291 21.7302 17.0056C21.7302 11.9822 17.7105 7.90991 12.7519 7.90991C7.79339 7.90991 3.77369 11.9822 3.77369 17.0056C3.77369 22.0291 7.79339 26.1014 12.7519 26.1014Z" fill="#EE312A"/>
<path d="M12.752 20.9017C10.7439 16.29 9.27131 11.9821 9.27131 11.9821H6.1926C6.1926 11.9821 8.06646 17.5116 11.5471 24.4266H13.9568C17.4375 17.5116 19.3113 11.9821 19.3113 11.9821H16.2326C16.2326 11.9821 14.76 16.29 12.752 20.9017Z" fill="white"/>
<path d="M55.732 20.3283H49.7086C49.7086 20.3283 49.8424 22.3628 52.5195 22.3628C53.858 22.3628 55.1966 21.9556 55.1966 21.9556L55.4644 24.1252C55.4644 24.1252 54.1258 24.6676 52.2518 24.6676C49.5748 24.6676 47.1654 23.3116 47.1654 19.5147C47.1654 16.5314 49.0393 14.6329 51.7164 14.6329C55.732 14.6329 55.9997 18.701 55.732 20.3283ZM51.5826 16.5313C49.8424 16.5313 49.7086 18.4298 49.7086 18.4298H53.4565C53.4565 18.4298 53.3226 16.5313 51.5826 16.5313Z" fill="white"/>
<path d="M35.0349 17.1041L35.4364 14.9344C35.4364 14.9344 32.3353 13.9811 29.8146 15.7481V24.4266H32.4918L32.4916 17.3753C33.5624 16.5617 35.0349 17.1041 35.0349 17.1041Z" fill="white"/>
<path d="M27.7193 20.3283H21.6959C21.6959 20.3283 21.8298 22.3628 24.5068 22.3628C25.8453 22.3628 27.1838 21.9556 27.1838 21.9556L27.4516 24.1252C27.4516 24.1252 26.1131 24.6676 24.2391 24.6676C21.562 24.6676 19.1527 23.3116 19.1527 19.5147C19.1527 16.5314 21.0266 14.6329 23.7037 14.6329C27.7193 14.6329 27.987 18.701 27.7193 20.3283ZM23.5698 16.5313C21.8298 16.5313 21.6959 18.4298 21.6959 18.4298H25.4438C25.4438 18.4298 25.31 16.5313 23.5698 16.5313Z" fill="white"/>
<path d="M41.5366 21.1741C40.7045 19.1238 40.0331 17.0102 39.5288 14.8531L36.8519 14.8534C36.8519 14.8534 38.1904 20.0889 40.4661 24.427H42.6071C44.8828 20.0889 46.2213 14.8544 46.2213 14.8544H43.5444C43.04 17.0111 42.3686 19.1242 41.5366 21.1741Z" fill="white"/>
</svg>
