<svg width="33" height="33" viewBox="0 0 33 33" fill="none" xmlns="http://www.w3.org/2000/svg">
<mask id="mask0_1_8" style="mask-type:luminance" maskUnits="userSpaceOnUse" x="0" y="0" width="33" height="33">
<path d="M0 0H33V32.0408H0V0Z" fill="white"/>
</mask>
<g mask="url(#mask0_1_8)">
<path d="M29.5715 0H1.71427C0.771402 0 0 0.762858 0 1.69529V4.74677C0 5.6792 0.771402 6.44206 1.71427 6.44206H29.4857C30.4286 6.44206 31.2 5.6792 31.2 4.74677V1.69529C31.2857 0.762858 30.5143 0 29.5715 0ZM29.5715 17.0376H1.71427C0.771402 17.0376 0 17.8004 0 18.7328V21.7843C0 22.7168 0.771402 23.4796 1.71427 23.4796H29.4857C30.4286 23.4796 31.2 22.7168 31.2 21.7843V18.7328C31.2857 17.8004 30.5143 17.0376 29.5715 17.0376ZM17.4 25.5987H1.71427C0.771402 25.5987 0 26.3616 0 27.294V30.3455C0 31.2779 0.771402 32.0408 1.71427 32.0408H17.4C18.3429 32.0408 19.1143 31.2779 19.1143 30.3455V27.294C19.1143 26.3616 18.3429 25.5987 17.4 25.5987ZM31.2857 8.56117H1.71427C0.771402 8.56117 0 9.32403 0 10.2564V13.3079C0 14.2403 0.771402 15.0032 1.71427 15.0032H31.2857C32.2286 15.0032 33 14.2403 33 13.3079V10.2564C33 9.32403 32.2286 8.56117 31.2857 8.56117Z" fill="#0BA4DB"/>
</g>
</svg>
