<svg width="58" height="38" viewBox="0 0 58 38" fill="none" xmlns="http://www.w3.org/2000/svg">
<path d="M29.1525 15.9978C29.1203 18.0811 31.4122 19.2437 33.1387 19.9349C34.9126 20.6441 35.5084 21.0989 35.5016 21.733C35.4881 22.7037 34.0866 23.1321 32.7748 23.1488C30.4863 23.178 29.1559 22.6412 28.098 22.2351L27.2736 25.4045C28.3349 25.8064 30.3001 26.1568 32.3381 26.1721C37.1215 26.1721 40.2512 24.2321 40.2681 21.2241C40.2867 17.4066 33.8411 17.1952 33.8851 15.4888C33.9004 14.9715 34.5013 14.4194 35.8181 14.2789C36.4698 14.208 38.2691 14.1538 40.3087 14.9256L41.1094 11.8591C40.0125 11.5309 38.6025 11.2166 36.8473 11.2166C32.3448 11.2166 29.1779 13.1831 29.1525 15.9978ZM48.8024 11.4809C47.929 11.4809 47.1927 11.8995 46.8644 12.542L40.0311 25.9468H44.8112L45.7624 23.7871H51.6038L52.1556 25.9468H56.3686L52.6921 11.4809H48.8024ZM49.471 15.3887L50.8505 20.8208H47.0726L49.471 15.3887ZM23.3569 11.4809L19.589 25.9468H24.1439L27.9101 11.4809H23.3569ZM16.6184 11.4809L11.8773 21.327L9.95954 12.955C9.73442 12.0205 8.84578 11.4809 7.85897 11.4809H0.108329L0 11.9009C1.59109 12.1846 3.39884 12.6421 4.49398 13.1316C5.16427 13.4306 5.35554 13.6921 5.57558 14.4027L9.20801 25.9468H14.0219L21.4018 11.4809H16.6184Z" fill="#1B2073"/>
<path d="M0 0H58V4.98517H0V0Z" fill="#1B2073"/>
<path d="M0 32.4036H58V37.3888H0V32.4036Z" fill="#F7B802"/>
</svg>
