<svg width="98" height="35" viewBox="0 0 98 35" fill="none" xmlns="http://www.w3.org/2000/svg">
<path d="M12.5718 14.5938C14.9503 10.9821 19.8079 -2.03251 12.2032 0.271512C8.8867 1.20558 4.02913 7.18359 3.05761 14.0957C2.5551 12.2275 1.9856 10.4839 1.38259 8.74036C0.444572 6.37407 -0.593944 8.24219 0.411071 10.6085C3.39028 17.3132 5.10797 25.6452 5.30215 34.3337C5.53665 30.1616 5.16814 25.0553 4.26363 20.0737C4.69914 20.3228 5.20164 20.4473 5.63715 20.4473C7.17817 25.1799 9.55671 29.2275 12.2032 31.0956C14.6488 32.9015 17.8983 31.8429 16.5583 24.5572C15.8548 20.5718 14.2133 17.0847 12.5718 14.5938ZM12.9068 1.95283C17.1278 1.08103 12.6053 10.8576 11.1312 12.6634C9.75771 10.9821 8.01569 9.48761 6.34066 9.92351C7.54668 6.99677 10.4947 2.51327 12.9068 1.95283ZM6.30716 12.0407C7.44618 11.8539 8.6857 13.0371 9.65721 14.2825C8.7192 15.1543 7.71418 15.6524 6.67567 15.8392C5.13464 15.8392 4.79964 12.2898 6.30716 12.0407ZM12.1362 27.2348C10.1597 26.1762 8.28369 23.1872 6.94367 20.1982C8.04919 19.7623 9.1547 18.9528 10.1597 17.8319C10.5282 17.5206 10.8967 17.0224 11.2317 16.5865C12.4043 18.5792 13.6438 21.2568 14.1128 24.3081C14.5818 27.6085 13.3088 27.8575 12.1362 27.2348Z" fill="#F5A623"/>
<path d="M28.7525 6.37407H22.9904C22.7894 6.37407 22.6219 6.68542 22.6219 7.05905H22.5884V23.8722C22.5884 24.2458 22.7559 24.5572 22.9569 24.5572C23.1244 24.5572 23.2919 24.2458 23.3254 23.8722V16.2751H28.2165C28.4175 16.2751 28.518 15.9638 28.518 15.6524C28.518 15.2788 28.384 15.092 28.2165 15.092H23.2919V7.68176H28.7525C28.9535 7.68176 29.054 7.3704 29.054 7.05905C29.054 6.87223 28.9535 6.62315 28.7525 6.37407ZM31.399 5.50227H31.3655C31.198 5.50227 31.0975 5.75136 31.0975 6.06271V23.8099C31.0975 24.1836 31.2315 24.4326 31.399 24.4326C31.6 24.4326 31.7005 24.1213 31.7005 23.8099V6.18725C31.7005 5.75136 31.6 5.50227 31.399 5.50227ZM39.7407 11.8539C39.7407 11.4803 39.6067 11.2312 39.4392 11.2312C39.2382 11.2312 39.1377 11.5426 39.1377 11.8539V19.2642C39.1377 21.755 38.0991 23.7477 36.8261 23.6854C35.4861 23.6854 34.7156 21.9418 34.7156 19.2019V11.8539C34.7156 11.4803 34.5816 11.2312 34.4141 11.2312C34.2801 11.2312 34.1126 11.5426 34.1126 11.8539V19.3887C34.1126 22.5022 35.1176 24.8063 36.7591 24.8063C37.7641 24.8685 38.7021 23.8099 39.1712 22.0663V23.9967C39.1712 24.3704 39.3387 24.5572 39.4727 24.5572C39.6737 24.5572 39.7742 24.2458 39.7742 23.9967H39.7407V11.8539ZM45.2682 12.4766C45.4023 12.4766 45.5698 12.2275 45.5698 11.9162C45.5698 11.6671 45.4023 11.3557 45.2682 11.3557H43.1577V7.68176C43.1577 7.3704 42.9902 7.05905 42.8562 7.05905H42.8227C42.6552 7.05905 42.5547 7.3704 42.5547 7.68176V11.3557H41.8177C41.6502 11.3557 41.5162 11.5426 41.5162 11.8539C41.5162 12.1653 41.6502 12.4766 41.8177 12.4766H42.5547V21.07C42.5547 23.4986 43.3922 24.6817 44.3637 24.6817C44.6987 24.6817 45.0337 24.5572 45.3353 24.3704C45.4358 24.2458 45.5363 24.059 45.5363 23.8099C45.5363 23.4986 45.4023 23.3118 45.2682 23.3118C45.0337 23.4363 44.7657 23.4986 44.4977 23.4986C43.6937 23.4986 43.1577 22.8136 43.1577 20.9455V12.4766H45.2682ZM50.4608 12.4766C50.6283 12.4766 50.7623 12.2275 50.7623 11.9162C50.7623 11.6671 50.6283 11.3557 50.4608 11.3557H48.3503V7.68176C48.3503 7.3704 48.2163 7.05905 48.0488 7.05905H48.0153C47.8478 7.05905 47.7473 7.3704 47.7473 7.68176V11.3557H47.0103C46.8763 11.3557 46.7088 11.5426 46.7088 11.8539C46.7088 12.1653 46.8763 12.4766 47.0103 12.4766H47.7473V21.07C47.7473 23.4986 48.5848 24.6817 49.5898 24.6817C49.8913 24.6817 50.2263 24.5572 50.5278 24.3704C50.6618 24.2458 50.7288 24.059 50.7288 23.8099C50.7288 23.4986 50.6283 23.3118 50.4608 23.3118C50.2263 23.4363 49.9583 23.4986 49.6903 23.4986C48.8863 23.4986 48.3503 22.8136 48.3503 20.9455V12.4766H50.4608ZM55.0504 10.9821C53.2749 10.9821 51.9349 13.9711 51.9349 17.8942V17.9565C51.9349 22.1286 53.4089 24.8685 55.1844 24.8685C56.1224 24.9308 57.0939 24.1836 57.7304 22.7513C57.8309 22.6268 57.8644 22.44 57.8644 22.3154C57.8644 22.0041 57.6969 21.6927 57.5629 21.6927L57.3619 21.8173C57.0962 22.3932 56.7676 22.8576 56.3979 23.1797C56.0283 23.5017 55.6261 23.6741 55.2179 23.6854C53.9114 23.6854 52.7389 21.755 52.6049 18.5169H57.8309C57.9649 18.5169 58.1324 18.2055 58.1324 17.8942C58.1324 13.9711 56.9264 10.9821 55.0504 10.9821ZM52.5714 17.2715C52.6719 14.407 53.7104 12.1653 55.0169 12.1653C56.5244 12.1653 57.3284 14.5938 57.3954 17.2715H52.5714ZM63.258 11.1689C62.052 11.3557 61.047 12.9125 60.6115 15.1543V11.9162C60.6115 11.6671 60.444 11.3557 60.31 11.3557C60.109 11.3557 60.0085 11.5426 59.975 11.9162V24.1213C59.975 24.4326 60.109 24.744 60.2765 24.744C60.444 24.744 60.578 24.4949 60.6115 24.1213V19.2642C60.6115 14.9675 61.851 12.9125 63.258 12.6012H63.2915C63.4925 12.6012 63.593 12.2275 63.593 11.9162C63.593 11.4803 63.459 11.1689 63.258 11.1689Z" fill="black"/>
<path d="M74.5477 10.4839C74.1122 10.4839 73.7102 11.1067 73.6097 11.9784L72.4707 19.0773L71.3651 11.9784C71.2646 11.1067 70.8291 10.4217 70.3266 10.4217H70.2261C69.7236 10.4217 69.2881 10.9821 69.1876 11.9784L68.0821 18.9528L67.0101 11.9162C66.8761 11.1067 66.5076 10.4217 66.0386 10.4217H66.0051C65.5026 10.4217 65.134 11.2312 65.134 12.2275L65.201 13.1616L66.9096 22.9381C67.0436 23.9345 67.4791 24.6194 68.0151 24.6817H68.0821C68.5846 24.6817 68.9866 23.9967 69.1541 23.0004L70.2596 16.0261L71.3651 23.0004C71.4991 23.9967 71.9347 24.6817 72.4372 24.6817H72.5377C73.0737 24.6817 73.5092 23.9967 73.6432 22.9381L75.3517 13.0371L75.4522 12.2898V12.2275C75.4522 11.2312 75.0502 10.4839 74.5477 10.4839ZM79.4723 10.4839C78.7018 10.4217 77.9647 10.733 77.2277 11.1689C76.9262 11.418 76.7587 11.9784 76.7587 12.6634C76.7587 13.5975 77.1272 14.2825 77.5962 14.2202C77.6632 14.2202 77.7637 14.2202 77.8642 14.0957C78.2997 13.8466 78.7688 13.722 79.2378 13.722C80.2428 13.722 80.7453 14.5938 80.7453 16.2751V16.462C80.2093 16.0883 79.6063 15.9638 79.0368 15.9638C77.3952 15.9638 76.2562 17.396 76.2562 20.4473C76.2562 23.1249 77.3617 24.6817 78.6348 24.6817C79.4388 24.744 80.2093 24.059 80.7453 22.9381C80.7788 23.9345 81.1808 24.6194 81.6833 24.6194C82.2193 24.6194 82.6548 23.7477 82.6548 22.689V16.462C82.6883 14.9052 82.4203 13.2861 81.8843 12.103C81.3148 11.1067 80.5443 10.4839 79.4723 10.4839ZM80.7788 19.5132C80.7788 21.0077 80.1088 21.9418 79.2043 21.8795C78.5678 21.8795 78.1322 21.2568 78.1322 20.1982V20.1359C78.1322 18.9528 78.6683 18.2055 79.5058 18.2055C79.9078 18.2055 80.3768 18.4546 80.7788 18.766V19.5132ZM89.4554 10.4217C89.0534 10.4217 88.6514 10.9198 88.5509 11.7916L87.0099 19.8246L85.5359 11.8539C85.4019 10.9821 85.0333 10.4217 84.5643 10.4217C84.0618 10.4217 83.6598 11.1689 83.5928 12.2275C83.5928 12.5389 83.6598 12.8502 83.7268 13.1616L85.8709 22.9381C86.0049 23.9345 86.4404 24.6194 86.9764 24.6817H87.1104C87.5794 24.6194 88.0484 23.9967 88.2494 23.0004L90.3264 13.2239L90.4269 12.2898V12.2275C90.4269 11.2312 90.0249 10.4217 89.4554 10.4217ZM94.648 10.3594C92.6045 10.3594 91.1974 13.5975 91.1974 17.5206V18.1433C91.2644 21.9418 92.9395 24.8685 94.849 24.6817C95.72 24.6817 96.5575 24.1213 97.261 23.0004C97.462 22.689 97.529 22.3154 97.529 21.8795V21.8173C97.529 20.9455 97.194 20.2605 96.7585 20.2605C96.591 20.2605 96.4235 20.3228 96.2895 20.5718C95.8991 21.1968 95.3976 21.5297 94.8825 21.5059C94.045 21.5682 93.308 20.4473 93.2075 18.766H97.127C97.6295 18.7037 98.0315 17.8319 97.998 16.8356V16.5242C97.998 13.1616 96.4905 10.2349 94.648 10.3594ZM93.1405 16.462C93.308 14.6561 93.844 13.5352 94.648 13.5352C95.452 13.5352 95.988 14.7184 96.0885 16.462H93.1405Z" fill="black" stroke="black" stroke-width="0.0196491"/>
</svg>
