<svg width="45" height="45" viewBox="0 0 45 45" fill="none" xmlns="http://www.w3.org/2000/svg">
<path d="M31.5943 0H13.4057C6.01379 0 0 6.01111 0 13.3998V31.5802C0 38.9689 6.01379 44.98 13.4057 44.98H31.5943C38.9862 44.98 45 38.9689 45 31.5802V13.3998C44.9999 6.01111 38.9861 0 31.5943 0ZM40.473 31.5802C40.473 36.4816 36.4978 40.455 31.5943 40.455H13.4057C8.50219 40.455 4.527 36.4816 4.527 31.5802V13.3998C4.527 8.49833 8.50219 4.52499 13.4057 4.52499H31.5943C36.4978 4.52499 40.473 8.49833 40.473 13.3998V31.5802Z" fill="url(#paint0_linear_1_17)"/>
<path d="M22.5 10.8566C16.0825 10.8566 10.8614 16.0753 10.8614 22.4899C10.8614 28.9045 16.0825 34.1233 22.5 34.1233C28.9175 34.1233 34.1386 28.9046 34.1386 22.4899C34.1386 16.0752 28.9175 10.8566 22.5 10.8566ZM22.5 29.5984C18.5723 29.5984 15.3884 26.4159 15.3884 22.49C15.3884 18.5641 18.5724 15.3816 22.5 15.3816C26.4277 15.3816 29.6116 18.5641 29.6116 22.49C29.6116 26.4158 26.4276 29.5984 22.5 29.5984Z" fill="url(#paint1_linear_1_17)"/>
<path d="M34.1611 13.7315C35.7014 13.7315 36.95 12.4835 36.95 10.9439C36.95 9.40436 35.7014 8.15631 34.1611 8.15631C32.6209 8.15631 31.3723 9.40436 31.3723 10.9439C31.3723 12.4835 32.6209 13.7315 34.1611 13.7315Z" fill="url(#paint2_linear_1_17)"/>
<defs>
<linearGradient id="paint0_linear_1_17" x1="22.5" y1="44.8491" x2="22.5" y2="0.349367" gradientUnits="userSpaceOnUse">
<stop stop-color="#E09B3D"/>
<stop offset="0.3" stop-color="#C74C4D"/>
<stop offset="0.6" stop-color="#C21975"/>
<stop offset="1" stop-color="#7024C4"/>
</linearGradient>
<linearGradient id="paint1_linear_1_17" x1="22.5" y1="44.8491" x2="22.5" y2="0.34937" gradientUnits="userSpaceOnUse">
<stop stop-color="#E09B3D"/>
<stop offset="0.3" stop-color="#C74C4D"/>
<stop offset="0.6" stop-color="#C21975"/>
<stop offset="1" stop-color="#7024C4"/>
</linearGradient>
<linearGradient id="paint2_linear_1_17" x1="34.1611" y1="44.8491" x2="34.1611" y2="0.349371" gradientUnits="userSpaceOnUse">
<stop stop-color="#E09B3D"/>
<stop offset="0.3" stop-color="#C74C4D"/>
<stop offset="0.6" stop-color="#C21975"/>
<stop offset="1" stop-color="#7024C4"/>
</linearGradient>
</defs>
</svg>
